<?xml version="1.0" encoding="utf-8"?>
<!-- Generator: Adobe Illustrator 15.0.2, SVG Export Plug-In  -->
<!DOCTYPE svg PUBLIC "-//W3C//DTD SVG 1.1//EN" "http://www.w3.org/Graphics/SVG/1.1/DTD/svg11.dtd" [
	<!ENTITY ns_flows "http://ns.adobe.com/Flows/1.0/">
]>
<svg version="1.1"
	 xmlns="http://www.w3.org/2000/svg" xmlns:xlink="http://www.w3.org/1999/xlink" xmlns:a="http://ns.adobe.com/AdobeSVGViewerExtensions/3.0/"
	 x="0px" y="0px" width="32px" height="32px" viewBox="0 0 32 32" overflow="visible" enable-background="new 0 0 32 32"
	 xml:space="preserve">
<defs>
</defs>
<circle fill="#EB7405" cx="16" cy="16" r="16"/>
<path fill="#FFFFFF" d="M25,11c0,0.552-0.447,1-1,1H8c-0.552,0-1-0.448-1-1l0,0c0-0.552,0.448-1,1-1h16C24.553,10,25,10.448,25,11
	L25,11z"/>
<path fill="#FFFFFF" d="M25,16c0,0.553-0.447,1-1,1H8c-0.552,0-1-0.447-1-1l0,0c0-0.552,0.448-1,1-1h16C24.553,15,25,15.448,25,16
	L25,16z"/>
<path fill="#FFFFFF" d="M25,21c0,0.553-0.447,1-1,1H8c-0.552,0-1-0.447-1-1l0,0c0-0.553,0.448-1,1-1h16C24.553,20,25,20.447,25,21
	L25,21z"/>
</svg>
